{"accessors" : [{"bufferView" : 0, "byteOffset" : 0, "componentType" : 5123, "count" : 1842, "type" : "SCALAR", "max" : [1841], "min" : [0]}, {"bufferView" : 1, "byteOffset" : 0, "componentType" : 5126, "count" : 1842, "type" : "VEC3", "max" : [162.14186096191406, -2.793245553970337, 357.8848571777344], "min" : [-162.14186096191406, -163.28414916992188, -489.2658386230469], "name" : "POSITION"}, {"bufferView" : 1, "byteOffset" : 12, "componentType" : 5126, "count" : 1842, "type" : "VEC3", "max" : [1.0000044107437134, 1.0000044107437134, 0.9999990463256836], "min" : [-1.0000044107437134, -1.0000044107437134, -1.0000044107437134], "name" : "NORMAL"}, {"bufferView" : 1, "byteOffset" : 24, "componentType" : 5126, "count" : 1842, "type" : "VEC2", "max" : [0.9877774715423584, -0.014544486999511719], "min" : [0.5386064052581787, -0.9613322019577026], "name" : "TEXCOORD_0"}, {"bufferView" : 0, "byteOffset" : 3684, "componentType" : 5123, "count" : 2124, "type" : "SCALAR", "max" : [2123], "min" : [0]}, {"bufferView" : 2, "byteOffset" : 0, "componentType" : 5126, "count" : 2124, "type" : "VEC3", "max" : [155.82894897460938, 63.94371795654297, 360.3402404785156], "min" : [-155.82894897460938, -137.95838928222656, -489.2658386230469], "name" : "POSITION"}, {"bufferView" : 2, "byteOffset" : 12, "componentType" : 5126, "count" : 2124, "type" : "VEC3", "max" : [0.9999911785125732, 1, 1.0000044107437134], "min" : [-0.999991238117218, -0.9996398091316223, -1.0000044107437134], "name" : "NORMAL"}, {"bufferView" : 2, "byteOffset" : 24, "componentType" : 5126, "count" : 2124, "type" : "VEC2", "max" : [0.9874246716499329, -0.023498952388763428], "min" : [0.49965840578079224, -0.9912450909614563], "name" : "TEXCOORD_0"}, {"bufferView" : 0, "byteOffset" : 7932, "componentType" : 5123, "count" : 228, "type" : "SCALAR", "max" : [227], "min" : [0]}, {"bufferView" : 3, "byteOffset" : 0, "componentType" : 5126, "count" : 228, "type" : "VEC3", "max" : [138.50900268554688, 59.08237075805664, 256.814697265625], "min" : [-138.50900268554688, -25.007356643676758, -183.64512634277344], "name" : "POSITION"}, {"bufferView" : 3, "byteOffset" : 12, "componentType" : 5126, "count" : 228, "type" : "VEC3", "max" : [0.8991909027099609, 0.9528163075447083, 0.9921557307243347], "min" : [-0.8991916179656982, -0.3684530258178711, -0.9921548366546631], "name" : "NORMAL"}, {"bufferView" : 3, "byteOffset" : 24, "componentType" : 5126, "count" : 228, "type" : "VEC2", "max" : [0.968498945236206, -0.80018150806427], "min" : [0.5071526169776917, -0.9912450909614563], "name" : "TEXCOORD_0"}, {"bufferView" : 0, "byteOffset" : 8388, "componentType" : 5123, "count" : 228, "type" : "SCALAR", "max" : [227], "min" : [0]}, {"bufferView" : 4, "byteOffset" : 0, "componentType" : 5126, "count" : 228, "type" : "VEC3", "max" : [162.14186096191406, 52.02513885498047, 316.25323486328125], "min" : [-162.14186096191406, -153.55404663085938, -239.64056396484375], "name" : "POSITION"}, {"bufferView" : 4, "byteOffset" : 12, "componentType" : 5126, "count" : 228, "type" : "VEC3", "max" : [0.003809974994510412, 0.0002731425338424742, 1.0000044107437134], "min" : [-0.003809976624324918, -0.9995356798171997, -1.0000044107437134], "name" : "NORMAL"}, {"bufferView" : 4, "byteOffset" : 24, "componentType" : 5126, "count" : 228, "type" : "VEC2", "max" : [0.8721312284469604, -0.10077273845672607], "min" : [0.6110154390335083, -0.9859555959701538], "name" : "TEXCOORD_0"}, {"bufferView" : 0, "byteOffset" : 8844, "componentType" : 5123, "count" : 12, "type" : "SCALAR", "max" : [11], "min" : [0]}, {"bufferView" : 5, "byteOffset" : 0, "componentType" : 5126, "count" : 12, "type" : "VEC3", "max" : [136.763671875, 41.01423645019531, -176.62796020507812], "min" : [-136.763671875, -4.1938018798828125, -487.0729064941406], "name" : "POSITION"}, {"bufferView" : 5, "byteOffset" : 12, "componentType" : 5126, "count" : 12, "type" : "VEC3", "max" : [0, 0.9898874759674072, -0.14188560843467712], "min" : [-1.7526467777084775E-10, 0.9895669221878052, -0.14410407841205597], "name" : "NORMAL"}, {"bufferView" : 5, "byteOffset" : 24, "componentType" : 5126, "count" : 12, "type" : "VEC2", "max" : [0.9900549650192261, -0.715327262878418], "min" : [0.7840161323547363, -0.7964602708816528], "name" : "TEXCOORD_0"}, {"bufferView" : 0, "byteOffset" : 8868, "componentType" : 5123, "count" : 24, "type" : "SCALAR", "max" : [23], "min" : [0]}, {"bufferView" : 6, "byteOffset" : 0, "componentType" : 5126, "count" : 24, "type" : "VEC3", "max" : [143.9898681640625, -6.559123992919922, -484.5598449707031], "min" : [-143.9898681640625, -12.660724639892578, -485.8990783691406], "name" : "POSITION"}, {"bufferView" : 6, "byteOffset" : 12, "componentType" : 5126, "count" : 24, "type" : "VEC3", "max" : [0.00881163775920868, -0.18940123915672302, -0.9760133624076843], "min" : [-0.00881163589656353, -0.21772705018520355, -0.9819036722183228], "name" : "NORMAL"}, {"bufferView" : 6, "byteOffset" : 24, "componentType" : 5126, "count" : 24, "type" : "VEC2", "max" : [0.5524516105651855, -0.8151198625564575], "min" : [0.5484018325805664, -0.9017748832702637], "name" : "TEXCOORD_0"}, {"bufferView" : 0, "byteOffset" : 8916, "componentType" : 5123, "count" : 48, "type" : "SCALAR", "max" : [47], "min" : [0]}, {"bufferView" : 7, "byteOffset" : 0, "componentType" : 5126, "count" : 48, "type" : "VEC3", "max" : [153.6328582763672, 63.10537338256836, 354.6798095703125], "min" : [-153.6328582763672, -61.653236389160156, 6.435039520263672], "name" : "POSITION"}, {"bufferView" : 7, "byteOffset" : 12, "componentType" : 5126, "count" : 48, "type" : "VEC3", "max" : [0.510314404964447, 0.05244794115424156, 0.9992647171020508], "min" : [-0.510314404964447, -0.1444588452577591, 0.8479811549186707], "name" : "NORMAL"}, {"bufferView" : 7, "byteOffset" : 24, "componentType" : 5126, "count" : 48, "type" : "VEC2", "max" : [0.6073310971260071, -0.5883470177650452], "min" : [0.5701481103897095, -0.9133869409561157], "name" : "TEXCOORD_0"}, {"bufferView" : 0, "byteOffset" : 9012, "componentType" : 5123, "count" : 5628, "type" : "SCALAR", "max" : [5627], "min" : [0]}, {"bufferView" : 8, "byteOffset" : 0, "componentType" : 5126, "count" : 5628, "type" : "VEC3", "max" : [167.44390869140625, -90.78125762939453, 295.2795104980469], "min" : [-167.44390869140625, -204.2034149169922, -375.02642822265625], "name" : "POSITION"}, {"bufferView" : 8, "byteOffset" : 12, "componentType" : 5126, "count" : 5628, "type" : "VEC3", "max" : [1.0000044107437134, 1.0000044107437134, 1.0000044107437134], "min" : [-1.0000044107437134, -1.0000044107437134, -1.0000044107437134], "name" : "NORMAL"}, {"bufferView" : 8, "byteOffset" : 24, "componentType" : 5126, "count" : 5628, "type" : "VEC2", "max" : [0.48222845792770386, -0.024947110563516617], "min" : [0.022063568234443665, -0.9909430742263794], "name" : "TEXCOORD_0"}, {"bufferView" : 0, "byteOffset" : 20268, "componentType" : 5123, "count" : 4560, "type" : "SCALAR", "max" : [4559], "min" : [0]}, {"bufferView" : 9, "byteOffset" : 0, "componentType" : 5126, "count" : 4560, "type" : "VEC3", "max" : [164.01107788085938, -77.37596893310547, 310.91650390625], "min" : [-163.89840698242188, -217.6941680908203, -388.61358642578125], "name" : "POSITION"}, {"bufferView" : 9, "byteOffset" : 12, "componentType" : 5126, "count" : 4560, "type" : "VEC3", "max" : [1.0000044107437134, 0.9907364845275879, 0.9907364845275879], "min" : [-1.0000044107437134, -0.9907364845275879, -0.9907364845275879], "name" : "NORMAL"}, {"bufferView" : 9, "byteOffset" : 24, "componentType" : 5126, "count" : 4560, "type" : "VEC2", "max" : [0.4873681962490082, -0.5053500533103943], "min" : [0.008558100089430809, -0.9901910424232483], "name" : "TEXCOORD_0"}], "asset" : {"generator" : "Aspose.3D 21.11", "version" : "2.0"}, "buffers" : [{"uri" : "data:application/octet-stream;base64,", "byteLength" : 499636}], "bufferViews" : [{"buffer" : 0, "byteOffset" : 0, "byteLength" : 29388, "target" : 34963}, {"buffer" : 0, "byteOffset" : 29392, "byteLength" : 58944, "byteStride" : 32, "target" : 34962}, {"buffer" : 0, "byteOffset" : 88340, "byteLength" : 67968, "byteStride" : 32, "target" : 34962}, {"buffer" : 0, "byteOffset" : 156312, "byteLength" : 7296, "byteStride" : 32, "target" : 34962}, {"buffer" : 0, "byteOffset" : 163612, "byteLength" : 7296, "byteStride" : 32, "target" : 34962}, {"buffer" : 0, "byteOffset" : 170912, "byteLength" : 384, "byteStride" : 32, "target" : 34962}, {"buffer" : 0, "byteOffset" : 171300, "byteLength" : 768, "byteStride" : 32, "target" : 34962}, {"buffer" : 0, "byteOffset" : 172072, "byteLength" : 1536, "byteStride" : 32, "target" : 34962}, {"buffer" : 0, "byteOffset" : 173612, "byteLength" : 180096, "byteStride" : 32, "target" : 34962}, {"buffer" : 0, "byteOffset" : 353712, "byteLength" : 145920, "byteStride" : 32, "target" : 34962}], "materials" : [{"name" : "", "pbrMetallicRoughness" : {"baseColorFactor" : [0.023000000044703484, 0.023000000044703484, 0.023000000044703484, 1], "metallicFactor" : 0, "roughnessFactor" : 0}, "emissiveFactor" : [0, 0, 0], "alphaMode" : "OPAQUE", "doubleSided" : false}, {"name" : "", "pbrMetallicRoughness" : {"baseColorFactor" : [0.4564110040664673, 0.5149177312850952, 0.5271152257919312, 1], "metallicFactor" : 0, "roughnessFactor" : 0}, "emissiveFactor" : [0, 0, 0], "alphaMode" : "OPAQUE", "doubleSided" : false}, {"name" : "", "pbrMetallicRoughness" : {"baseColorFactor" : [0.010960095562040806, 0.013702084310352802, 0.0159962959587574, 0.9220779240131378], "metallicFactor" : 0, "roughnessFactor" : 0}, "emissiveFactor" : [0, 0, 0], "alphaMode" : "BLEND", "doubleSided" : false}, {"name" : "", "pbrMetallicRoughness" : {"baseColorFactor" : [0.5, 0.5, 0.5, 1], "metallicFactor" : 0, "roughnessFactor" : 0}, "emissiveFactor" : [0, 0, 0], "alphaMode" : "OPAQUE", "doubleSided" : false}, {"name" : "", "pbrMetallicRoughness" : {"baseColorFactor" : [0.2723029851913452, 0.30929574370384216, 0.31700000166893005, 1], "metallicFactor" : 0, "roughnessFactor" : 0}, "emissiveFactor" : [0, 0, 0], "alphaMode" : "OPAQUE", "doubleSided" : false}, {"name" : "", "pbrMetallicRoughness" : {"baseColorFactor" : [0.75, 0, 0, 1], "metallicFactor" : 0, "roughnessFactor" : 0}, "emissiveFactor" : [0, 0, 0], "alphaMode" : "OPAQUE", "doubleSided" : false}, {"name" : "", "pbrMetallicRoughness" : {"baseColorFactor" : [1, 1, 1, 1], "metallicFactor" : 0, "roughnessFactor" : 0}, "emissiveFactor" : [0, 0, 0], "alphaMode" : "OPAQUE", "doubleSided" : false}, {"name" : "", "pbrMetallicRoughness" : {"baseColorFactor" : [0.0009103548363782465, 0.0024276128970086575, 0.003676507854834199, 1], "metallicFactor" : 0, "roughnessFactor" : 0}, "emissiveFactor" : [0, 0, 0], "alphaMode" : "OPAQUE", "doubleSided" : false}, {"name" : "", "pbrMetallicRoughness" : {"baseColorFactor" : [0.01228648703545332, 0.015208511613309383, 0.017641959711909294, 1], "metallicFactor" : 0, "roughnessFactor" : 0}, "emissiveFactor" : [0, 0, 0], "alphaMode" : "OPAQUE", "doubleSided" : false}], "meshes" : [{"primitives" : [{"attributes" : {"POSITION" : 1, "NORMAL" : 2, "TEXCOORD_0" : 3}, "indices" : 0, "material" : 0, "mode" : 4}, {"attributes" : {"POSITION" : 5, "NORMAL" : 6, "TEXCOORD_0" : 7}, "indices" : 4, "material" : 1, "mode" : 4}, {"attributes" : {"POSITION" : 9, "NORMAL" : 10, "TEXCOORD_0" : 11}, "indices" : 8, "material" : 2, "mode" : 4}, {"attributes" : {"POSITION" : 13, "NORMAL" : 14, "TEXCOORD_0" : 15}, "indices" : 12, "material" : 3, "mode" : 4}, {"attributes" : {"POSITION" : 17, "NORMAL" : 18, "TEXCOORD_0" : 19}, "indices" : 16, "material" : 4, "mode" : 4}, {"attributes" : {"POSITION" : 21, "NORMAL" : 22, "TEXCOORD_0" : 23}, "indices" : 20, "material" : 5, "mode" : 4}, {"attributes" : {"POSITION" : 25, "NORMAL" : 26, "TEXCOORD_0" : 27}, "indices" : 24, "material" : 6, "mode" : 4}, {"attributes" : {"POSITION" : 29, "NORMAL" : 30, "TEXCOORD_0" : 31}, "indices" : 28, "material" : 7, "mode" : 4}, {"attributes" : {"POSITION" : 33, "NORMAL" : 34, "TEXCOORD_0" : 35}, "indices" : 32, "material" : 8, "mode" : 4}], "name" : ""}], "nodes" : [{"matrix" : [1, 0, 0, 0, 0, 2.220446049250313E-16, 1, 0, 0, -1, 2.220446049250313E-16, 0, 0, 0, 0, 1], "mesh" : 0, "name" : "Cybertruck"}], "scene" : 0, "scenes" : [{"nodes" : [0]}]}